PathFileType	4	(X/Y/Z)	C:/Users/beibeiliu/ov580/test_trc\sequence.36_training_dense_left.trc
DataRate	CameraRate	NumFrames	NumMarkers	Units	OrigDataRate	OrigDataStartFrame	OrigNumFrames
120	120	22	19	mm	120	29	57
Frame#	Time	ThumbCMC			ThumbMCP			ThumbIP			ThumbTip			IndexMCP			IndexPIP			IndexTip			MiddleMCP			MiddlePIP			MiddleTip			RingMCP			RingPIP			RingTip			PinkyMCP			PinkyPIP			PinkyTip			BackHand1			BackHand2			BackHand3	
		X0	Y0	Z0	X1	Y1	Z1	X2	Y2	Z2	X3	Y3	Z3	X4	Y4	Z4	X5	Y5	Z5	X6	Y6	Z6	X7	Y7	Z7	X8	Y8	Z8	X9	Y9	Z9	X10	Y10	Z10	X11	Y11	Z11	X12	Y12	Z12	X13	Y13	Z13	X14	Y14	Z14	X15	Y15	Z15	X16	Y16	Z16	X17	Y17	Z17	X18	Y18	Z18	
28	0.233333	-122.139	31.5102	138.392	-103.593	23.0965	124.113	-83.8415	27.026	103.149	-69.8086	28.7264	86.9751	-98.7119	31.0949	70.7538	-91.8699	2.22614	71.1661	-112.237	1.28361	102.318	-114.178	22.8477	63.1693	-107.687	-9.3088	73.2143	-124.656	-2.96637	101.794	-129.632	8.55167	58.7992	-123.104	-13.5368	78.7435	-135.963	0.613741	103.902	-148.134	5.53873	60.3322	-140.715	-16.3307	80.7169	-149.788	0.956347	106.488	-166.485	42.799	87.9619	-180.984	41.4504	122.189	-148.171	52.6706	119.481	
29	0.241667	-123.947	37.76	141.183	-101.822	33.5406	122.989	-78.8475	39.224	107.811	-65.3862	40.1532	89.3579	-99.1005	38.667	72.0791	-83.1695	11.1982	75.8712	-100.651	10.6822	106.975	-111.583	23.1167	60.9371	-99.9242	-3.10779	75.7659	-117.494	7.50639	108.152	-123.489	10.6272	61.6366	-114.907	-9.42584	81.8404	-132.521	3.58759	106.262	-139.885	4.07888	64.4542	-128.881	-14.1853	86.3681	-140.966	4.78076	108.958	-163.903	41.0489	92.3737	-178.123	38.2384	118.511	-149.14	55.4252	118.588	
30	0.25	-127.102	49.124	136.101	-99.8002	52.3302	123.587	-84.7601	54.3722	106.278	-69.9543	58.5601	85.2059	-92.3221	50.6571	72.8324	-77.2904	27.2606	78.4942	-98.628	24.8412	109.497	-107.764	29.9256	65.3662	-88.986	7.62385	82.4893	-110.22	14.6298	110.176	-112.438	12.3853	65.4383	-103.204	-2.86927	91.7212	-122.02	15.7156	111.044	-126.443	0.314454	69.865	-115.173	-9.87155	93.2896	-134.626	10.1429	116.443	-164.794	33.2438	86.0324	-179.293	31.0072	117.139	-154.72	55.7558	113.346	
31	0.258333	-135.955	60.2601	134.322	-109.49	71.1869	120.542	-96.8753	75.1399	101.037	-82.0292	82.4832	81.7447	-99.49	58.6284	68.909	-75.1805	50.563	81.9446	-94.3488	44.914	110.905	-99.1511	37.4651	67.3399	-80.4615	28.4691	90.3286	-105.92	32.9156	116.295	-104.738	15.6777	72.2852	-89.157	13.5958	96.5722	-116.972	23.1299	115.665	-113.383	-0.109149	77.2893	-99.0753	0.491082	105.932	-122.229	12.0036	121.774	-159.832	21.3123	87.8076	-174.04	20.427	118.874	-158.431	53.3652	109.103	
32	0.266667	-151.267	58.3186	124.282	-132.522	73.3119	109.624	-119.282	82.9141	87.4607	-108.133	83.5423	66.8516	-117.793	58.9446	63.515	-88.5677	60.5826	77.1711	-105.972	52.1463	105.145	-106.798	35.3434	66.2619	-83.65	41.022	88.4692	-111.513	39.9225	113.187	-101.573	20.5933	73.9078	-86.6024	25.8957	99.7557	-116.405	25.9777	116.662	-100.72	1.22492	84.181	-92.7845	15.8833	108.725	-122.601	17.0024	123.236	-153.421	2.553	89.1332	-168.986	3.56319	120.519	-166.173	30.8035	104.696	
33	0.275	-173.361	39.8503	116.808	-159.523	55.6943	95.7042	-148.579	61.911	68.9313	-139.673	63.3606	52.8904	-134.378	34.5524	55.8399	-110.656	50.8576	66.8167	-126.733	44.3846	96.2144	-118.02	24.2523	61.5626	-101.222	39.7248	81.3809	-125.319	33.2923	107.163	-107.442	13.2496	72.7442	-98.7873	27.5574	95.3582	-127.932	18.1627	112.767	-98.7885	-0.511278	85.5388	-100.192	17.8396	106.599	-125.512	10.5331	124.683	-152.189	-18.1259	93.4577	-165.06	-19.8029	121.116	-175.031	2.69333	101.516	
34	0.283333	-194.241	5.17031	113.181	-188.817	22.2746	88.7566	-181.844	24.0689	63.4311	-172.939	23.0141	40.9841	-162.039	1.46585	49.3063	-142.634	26.9915	56.5814	-150.397	23.4133	85.2334	-140.207	-1.81512	53.7425	-129.003	21.829	71.652	-151.642	10.3004	98.7198	-124.545	-9.82395	66.9404	-124.524	16.6702	84.5535	-146.114	0.809303	106.573	-115.109	-19.4873	82.6295	-118.841	8.34419	97.9128	-143.016	-2.32431	115.696	-157.712	-45.1169	98.5891	-169.096	-45.5135	130.884	-184.782	-31.6869	104.698	
35	0.291667	-212.772	-17.277	115.895	-209.137	-8.027	86.1435	-205.936	-7.77248	62.8956	-200.33	-8.87229	39.0591	-186.568	-26.8411	46.372	-173.942	3.82998	47.3921	-176.273	3.33882	77.7097	-159.682	-28.0031	51.2836	-156.22	0.916676	62.1708	-172.795	-6.60649	93.1866	-144.581	-30.593	62.5962	-146.516	-1.73171	76.5721	-163.849	-13.7476	100.237	-132.567	-32.4252	74.4198	-139.39	-6.61713	88.7737	-155.962	-16.6998	111.612	-166.719	-66.9517	101.275	-176.03	-65.0163	133.911	-198.083	-53.3054	111.552	
36	0.3	-228.929	-28.4126	117.698	-226.742	-20.7748	88.7463	-227.662	-20.771	64.7608	-230.401	-20.8146	38.8271	-205.127	-41.4311	47.718	-193.682	-14.9411	41.594	-194.062	-9.90303	75.6009	-184.704	-42.931	50.1309	-178.416	-12.2531	53.5766	-186.069	-17.1576	90.1933	-166.586	-44.5534	59.9124	-164.757	-15.2802	66.9797	-183.617	-25.0192	97.5279	-154.777	-43.4689	70.0031	-158.769	-18.3813	79.7279	-173.744	-26.0303	108.13	-180.851	-76.1432	105.419	-189.365	-73.5815	133.671	-213.146	-64.1114	113.819	
37	0.308333	-241.84	-25.0762	115.963	-243.576	-16.2656	87.6281	-246.564	-14.2893	65.3737	-250.878	-14.3489	40.4807	-225.254	-35.4751	43.112	-213.574	-9.17326	41.0238	-214.801	-4.86735	73.7301	-204.289	-41.9547	48.6699	-194.482	-11.322	50.9535	-201.146	-14.6279	86.3275	-185.501	-43.3024	55.2809	-185.395	-11.982	64.8729	-196.375	-23.0956	97.0624	-172.05	-48.5135	66.4932	-171.53	-18.279	74.7301	-189.207	-19.5999	99.7792	-204.487	-72.3178	102.894	-203.255	-72.1907	132.4	-234.49	-59.8222	110.401	
38	0.316667	-250.08	-6.90946	114.257	-253.328	9.3133	87.8383	-257.401	11.3094	61.688	-255.439	10.5309	40.8507	-242.532	-15.9946	43.069	-226.049	11.7651	38.5606	-220.433	10.2172	71.8335	-223.998	-22.1714	42.9399	-204.666	4.02273	48.1902	-212.59	-1.71277	85.2991	-204.226	-26.6161	48.5426	-193.719	-0.532946	60.3701	-206.419	-7.75609	91.0304	-189.984	-34.1971	59.3133	-181.853	-8.97776	70.699	-200.234	-13.5109	101.161	-220.08	-58.8389	95.5581	-225.566	-56.4441	124.536	-251.421	-41.2359	106.95	
39	0.325	-248.378	20.8486	111.258	-244.111	36.2567	88.4234	-248.525	44.4646	58.3828	-248.744	46.0074	32.8635	-241.596	17.985	36.0781	-220.108	34.6039	34.6272	-217.649	31.9698	70.9107	-224.256	2.45539	35.9556	-201.857	21.8231	46.828	-208.608	16.702	79.5353	-213.069	-6.79048	43.5318	-193.648	12.3083	58.6545	-209.34	4.62113	89.2961	-199.179	-18.3134	51.9865	-187.09	1.71282	68.4485	-206.432	-2.55161	94.8985	-241.46	-34.8016	86.665	-239.394	-36.1193	116.877	-260.556	-8.90811	103.442	
40	0.333333	-233.701	52.2478	109.252	-224.334	62.4033	85.2191	-224.442	73.0342	59.6639	-223.368	77.1999	35.789	-231.537	46.9586	34.0374	-203.513	52.6508	35.8398	-202.496	42.8062	67.3526	-223.944	26.817	32.9916	-194.607	32.2221	40.5743	-203.57	32.7559	76.3849	-215.631	9.2961	38.0042	-190.166	18.9158	52.6246	-209.218	19.1448	83.6557	-213.411	-4.85857	46.5645	-189.486	4.00454	63.1384	-206.767	10.8603	90.3133	-252.712	-7.32073	77.5734	-252.776	-8.00439	111.471	-259.411	23.2325	99.7246	
41	0.341667	-208.537	60.672	110.114	-194.22	64.0394	87.8942	-189.693	77.2654	57.5038	-190.949	78.9841	35.0827	-212.811	62.9729	37.3239	-186.027	51.4185	31.6493	-187.922	39.2294	63.6306	-216.125	39.7942	30.4111	-187.43	29.1468	36.9971	-196.222	25.9901	73.368	-219.444	19.4983	34.7571	-191.431	15.9785	47.8722	-203.49	22.4557	79.0341	-221.791	2.57972	41.4276	-197.599	1.65881	59.464	-211.636	11.6024	89.6015	-255.719	24.2297	78.3994	-253.904	21.5038	110.315	-243.331	51.5945	102.206	
42	0.35	-185.154	48.3349	106.598	-166.175	49.2381	86.1051	-163.694	51.6732	56.5456	-160.89	52.7213	35.8399	-186.278	53.2194	36.8245	-167.817	26.8599	35.5768	-174.875	25.0016	69.245	-199.352	31.2136	31.0291	-181.089	8.29956	39.8103	-185.773	18.1438	76.956	-212.548	15.8002	36.9965	-191.969	-3.12016	52.7566	-198.111	13.0054	81.0634	-222.712	2.37221	44.0058	-200.655	-7.76569	61.7946	-206.335	8.57003	89.1665	-242.564	38.5456	81.4178	-243.045	34.3738	112.069	-219.658	56.4955	101.486	
43	0.358333	-162.461	29.2942	113.72	-148.479	19.9562	91.682	-138.483	17.8401	67.8022	-135.349	14.4731	40.1031	-165.191	20.9583	40.2861	-151.741	-5.63717	42.6426	-161.387	-3.6364	76.154	-183.64	10.2161	40.0892	-168.829	-17.7444	53.0326	-176.407	-4.38042	84.6266	-195.629	-2.36788	43.6297	-185.669	-22.7806	61.0136	-191.518	-2.5812	90.7333	-209.297	-7.25193	51.6015	-197.821	-23.5274	72.1465	-198.291	-4.40065	96.7213	-218.304	37.2754	80.6697	-226.116	36.4693	113.856	-191.245	48.1588	103.95	
44	0.366667	-149.449	7.4122	125.794	-128.798	-7.76034	105.806	-118.07	-13.5293	77.3435	-119.619	-19.1445	56.6838	-142.612	-6.34984	54.5415	-141.1	-36.4192	58.274	-150.894	-24.4667	91.2659	-162.333	-12.0526	52.381	-161.667	-41.8591	64.491	-164.329	-24.3279	98.7625	-181.539	-23.4423	54.7828	-177.62	-42.8246	75.0541	-180.387	-18.1926	102.013	-198.3	-19.4232	62.2088	-190.474	-38.1089	87.4857	-185.893	-12.3089	106.616	-196.106	24.7419	88.0632	-199.411	30.0063	118.313	-165.905	32.3771	107.159	
45	0.375	-136.048	-8.35947	137.782	-118.572	-26.4144	120.211	-109.252	-35.589	100.208	-102.341	-42.9554	80.804	-125.188	-28.7391	69.9051	-127.536	-57.4334	79.7316	-138.137	-42.5827	107.558	-145.73	-35.139	65.7077	-152.226	-60.114	85.2315	-154.646	-40.7869	113.777	-162.771	-37.1642	67.9624	-165.193	-57.485	89.5715	-167.224	-29.7119	114.864	-182.359	-38.6565	73.1032	-181.573	-51.3731	99.1341	-176.542	-27.8399	118.904	-182.068	12.0677	94.3882	-185.252	22.0288	125.741	-152.122	17.0429	118.998	
46	0.383333	-123.743	-13.8547	152.342	-105.059	-33.6079	143.602	-92.0781	-43.9002	123.967	-85.1223	-54.2991	101.331	-104.787	-40.7419	91.3148	-108.976	-69.8856	100.389	-126.883	-52.0052	125.474	-123.06	-49.2588	85.0934	-130.252	-73.0222	108.278	-140.951	-49.8235	131.547	-147.767	-52.7317	83.7418	-146.515	-69.7438	110.705	-155.874	-42.667	130.884	-162.137	-54.4507	87.9995	-162.069	-64.3229	112.596	-164.08	-37.944	130.806	-161.394	-0.920358	102.253	-175.705	10.6104	131.334	-138.922	7.41979	130.147	
47	0.391667	-117.978	-7.28956	164.206	-98.6563	-24.4961	154.983	-73.4415	-32.7355	140.64	-61.3163	-42.5688	126.225	-84.7485	-40.3589	108.329	-83.9161	-63.8815	122.862	-107.361	-48.8988	145.414	-104.592	-48.5796	101.347	-108.924	-73.1378	124.722	-124.579	-47.7168	147.202	-122.733	-61.7831	102.046	-124.782	-71.0284	128.892	-140.909	-42.9339	144.013	-139.767	-59.5981	101.949	-142.783	-67.6499	130.634	-150.568	-38.4267	141.952	-153.496	-10.4264	109.892	-166.734	3.88944	130.593	-133.861	8.66837	134.617	
48	0.4	-121.606	9.03281	163.025	-95.2574	-2.33372	156.524	-68.0138	-4.51338	142.98	-54.9732	-14.5308	126.196	-75.5705	-19.9529	111.951	-69.5842	-43.6274	130.815	-95.9481	-33.4248	150.475	-91.7145	-37.5607	106.888	-86.4798	-53.867	136.203	-111.1	-31.6441	152.776	-104.979	-48.236	109.127	-108.467	-60.7327	139.287	-125.917	-31.162	147.578	-120.416	-60.4678	110.844	-122.146	-59.1702	140.674	-137.991	-36.7631	148.392	-150.172	-13.0132	107.178	-167.055	-2.82257	126.386	-140.588	12.1292	129.256	
49	0.408333	-123.498	28.5207	150.632	-99.539	25.079	145.192	-75.7267	27.6388	130.435	-56.4578	25.5833	115.679	-72.9255	5.12617	104.802	-60.7264	-8.02196	128.928	-86.1519	-5.72831	147.489	-81.0742	-15.3934	103.588	-73.4123	-26.2767	132.764	-107.146	-14.1915	148.323	-90.3176	-33.3711	107.629	-88.8196	-35.0965	139.755	-118.071	-20.4788	147.317	-105.751	-42.0542	108.426	-100.295	-41.7804	138.721	-128.85	-25.8222	150.012	-144.571	-12.9669	101.42	-165.763	-5.28227	124.885	-144.424	17.7095	120.359	
